<mxfile host="65bd71144e">
    <diagram id="ZjGEMSDqoYEfFDzAhM6Q" name="PÃ¡gina-1">
        <mxGraphModel dx="902" dy="411" grid="1" gridSize="10" guides="1" tooltips="1" connect="1" arrows="1" fold="1" page="1" pageScale="1" pageWidth="827" pageHeight="1169" math="0" shadow="0">
            <root>
                <mxCell id="0"/>
                <mxCell id="1" parent="0"/>
                <mxCell id="4" value="" style="edgeStyle=none;html=1;fontSize=14;fontColor=#000000;" edge="1" parent="1" source="2" target="3">
                    <mxGeometry relative="1" as="geometry"/>
                </mxCell>
                <mxCell id="2" value="&lt;font color=&quot;#000000&quot; style=&quot;font-size: 14px;&quot;&gt;&lt;b&gt;INICIO&lt;/b&gt;&lt;/font&gt;" style="ellipse;whiteSpace=wrap;html=1;fillColor=#00CC00;" vertex="1" parent="1">
                    <mxGeometry x="320" y="40" width="120" height="80" as="geometry"/>
                </mxCell>
                <mxCell id="10" value="" style="edgeStyle=none;html=1;fontSize=12;fontColor=#000000;" edge="1" parent="1" source="3" target="9">
                    <mxGeometry relative="1" as="geometry"/>
                </mxCell>
                <mxCell id="3" value="&lt;b&gt;&lt;font style=&quot;font-size: 12px;&quot;&gt;Y = INTENTO_USUARIO&lt;/font&gt;&lt;/b&gt;" style="shape=parallelogram;perimeter=parallelogramPerimeter;whiteSpace=wrap;html=1;fixedSize=1;fontSize=14;fontColor=#000000;fillColor=#FF8000;" vertex="1" parent="1">
                    <mxGeometry x="297.5" y="150" width="165" height="80" as="geometry"/>
                </mxCell>
                <mxCell id="14" value="" style="edgeStyle=none;html=1;fontSize=14;fontColor=#000000;" edge="1" parent="1" source="9" target="11">
                    <mxGeometry relative="1" as="geometry"/>
                </mxCell>
                <mxCell id="9" value="&lt;font style=&quot;font-size: 14px;&quot;&gt;&lt;b&gt;X = randint (1 , 10)&lt;/b&gt;&lt;/font&gt;" style="rounded=0;whiteSpace=wrap;html=1;fontSize=12;fontColor=#000000;fillColor=#009999;" vertex="1" parent="1">
                    <mxGeometry x="315" y="270" width="130" height="60" as="geometry"/>
                </mxCell>
                <mxCell id="16" style="edgeStyle=none;html=1;entryX=0.5;entryY=0;entryDx=0;entryDy=0;fontSize=14;fontColor=#000000;" edge="1" parent="1" source="11" target="15">
                    <mxGeometry relative="1" as="geometry">
                        <Array as="points">
                            <mxPoint x="540" y="420"/>
                        </Array>
                    </mxGeometry>
                </mxCell>
                <mxCell id="19" style="edgeStyle=none;html=1;entryX=0.5;entryY=0;entryDx=0;entryDy=0;fontSize=14;fontColor=#000000;" edge="1" parent="1" source="11" target="18">
                    <mxGeometry relative="1" as="geometry">
                        <Array as="points">
                            <mxPoint x="220" y="420"/>
                        </Array>
                    </mxGeometry>
                </mxCell>
                <mxCell id="11" value="&lt;font style=&quot;font-size: 14px;&quot;&gt;&lt;b&gt;Y == X&lt;/b&gt;&lt;/font&gt;" style="rhombus;whiteSpace=wrap;html=1;fontSize=12;fontColor=#000000;fillColor=#FFFF33;" vertex="1" parent="1">
                    <mxGeometry x="320" y="360" width="120" height="110" as="geometry"/>
                </mxCell>
                <mxCell id="33" style="edgeStyle=none;html=1;entryX=0.5;entryY=0;entryDx=0;entryDy=0;fontSize=14;fontColor=#00CC00;" edge="1" parent="1" source="15">
                    <mxGeometry relative="1" as="geometry">
                        <mxPoint x="380" y="800" as="targetPoint"/>
                        <Array as="points">
                            <mxPoint x="540" y="760"/>
                            <mxPoint x="380" y="760"/>
                        </Array>
                    </mxGeometry>
                </mxCell>
                <mxCell id="15" value="&lt;b&gt;RTA&lt;/b&gt;" style="rounded=0;whiteSpace=wrap;html=1;fontSize=14;fontColor=#000000;fillColor=#0066CC;" vertex="1" parent="1">
                    <mxGeometry x="480" y="460" width="120" height="60" as="geometry"/>
                </mxCell>
                <mxCell id="23" style="edgeStyle=none;html=1;entryX=0.5;entryY=0;entryDx=0;entryDy=0;fontSize=14;fontColor=#000000;" edge="1" parent="1" source="18" target="22">
                    <mxGeometry relative="1" as="geometry">
                        <Array as="points">
                            <mxPoint x="80" y="520"/>
                        </Array>
                    </mxGeometry>
                </mxCell>
                <mxCell id="24" style="edgeStyle=none;html=1;entryX=0.5;entryY=0;entryDx=0;entryDy=0;fontSize=14;fontColor=#000000;" edge="1" parent="1" source="18" target="21">
                    <mxGeometry relative="1" as="geometry">
                        <Array as="points">
                            <mxPoint x="360" y="520"/>
                        </Array>
                    </mxGeometry>
                </mxCell>
                <mxCell id="18" value="&lt;span style=&quot;font-size: 14px;&quot;&gt;&lt;b&gt;Y &amp;lt; X&lt;/b&gt;&lt;/span&gt;" style="rhombus;whiteSpace=wrap;html=1;fontSize=12;fontColor=#000000;fillColor=#FFFF33;" vertex="1" parent="1">
                    <mxGeometry x="160" y="460" width="120" height="110" as="geometry"/>
                </mxCell>
                <mxCell id="34" style="edgeStyle=none;html=1;entryX=0.5;entryY=0;entryDx=0;entryDy=0;fontSize=14;fontColor=#00CC00;" edge="1" parent="1" source="21">
                    <mxGeometry relative="1" as="geometry">
                        <mxPoint x="380" y="800" as="targetPoint"/>
                        <Array as="points">
                            <mxPoint x="358" y="760"/>
                            <mxPoint x="380" y="760"/>
                        </Array>
                    </mxGeometry>
                </mxCell>
                <mxCell id="21" value="&lt;b&gt;RTA&lt;/b&gt;" style="rounded=0;whiteSpace=wrap;html=1;fontSize=14;fontColor=#000000;fillColor=#0066CC;" vertex="1" parent="1">
                    <mxGeometry x="297.5" y="560" width="120" height="60" as="geometry"/>
                </mxCell>
                <mxCell id="35" style="edgeStyle=none;html=1;fontSize=14;fontColor=#00CC00;" edge="1" parent="1" source="22">
                    <mxGeometry relative="1" as="geometry">
                        <mxPoint x="380" y="800" as="targetPoint"/>
                        <Array as="points">
                            <mxPoint x="80" y="760"/>
                            <mxPoint x="380" y="760"/>
                        </Array>
                    </mxGeometry>
                </mxCell>
                <mxCell id="22" value="&lt;b&gt;RTA&lt;/b&gt;" style="rounded=0;whiteSpace=wrap;html=1;fontSize=14;fontColor=#000000;fillColor=#0066CC;" vertex="1" parent="1">
                    <mxGeometry x="20" y="560" width="120" height="60" as="geometry"/>
                </mxCell>
                <mxCell id="25" value="&lt;b&gt;&lt;font color=&quot;#ff3333&quot;&gt;FALSE&lt;/font&gt;&lt;/b&gt;" style="text;html=1;align=center;verticalAlign=middle;resizable=0;points=[];autosize=1;strokeColor=none;fillColor=none;fontSize=14;fontColor=#000000;" vertex="1" parent="1">
                    <mxGeometry x="115" y="465" width="70" height="30" as="geometry"/>
                </mxCell>
                <mxCell id="26" value="&lt;b&gt;FALSE&lt;/b&gt;" style="text;html=1;align=center;verticalAlign=middle;resizable=0;points=[];autosize=1;strokeColor=none;fillColor=none;fontSize=14;fontColor=#FF3333;" vertex="1" parent="1">
                    <mxGeometry x="285" y="365" width="70" height="30" as="geometry"/>
                </mxCell>
                <mxCell id="27" value="&lt;font color=&quot;#00cc00&quot;&gt;TRUE&lt;/font&gt;" style="text;html=1;align=center;verticalAlign=middle;resizable=0;points=[];autosize=1;strokeColor=none;fillColor=none;fontSize=14;fontColor=#FF3333;" vertex="1" parent="1">
                    <mxGeometry x="417.5" y="365" width="60" height="30" as="geometry"/>
                </mxCell>
                <mxCell id="28" value="TRUE" style="text;html=1;align=center;verticalAlign=middle;resizable=0;points=[];autosize=1;strokeColor=none;fillColor=none;fontSize=14;fontColor=#00CC00;" vertex="1" parent="1">
                    <mxGeometry x="250" y="465" width="60" height="30" as="geometry"/>
                </mxCell>
                <mxCell id="37" value="&lt;b&gt;&lt;font color=&quot;#000000&quot;&gt;FIN&lt;/font&gt;&lt;/b&gt;" style="ellipse;whiteSpace=wrap;html=1;fontSize=14;fontColor=#00CC00;fillColor=#FF3333;" vertex="1" parent="1">
                    <mxGeometry x="320" y="800" width="120" height="80" as="geometry"/>
                </mxCell>
            </root>
        </mxGraphModel>
    </diagram>
</mxfile>